<svg width="150" height="148" viewBox="0 0 150 148" fill="none" xmlns="http://www.w3.org/2000/svg">
<g filter="url(#filter0_d_67_771)">
<circle cx="75.5" cy="73.5" r="57.5" fill="#46A3FF"/>
</g>
<path d="M104.114 99.5078L127.5 20.529L88.8409 84.2304L104.114 99.5078Z" fill="#DEDEE0"/>
<path d="M127.5 20.529L48.4773 43.8544L63.8182 59.1318L127.5 20.529Z" fill="white"/>
<path d="M88.8409 84.2304L127.5 20.529L63.8182 59.1318L88.8409 84.2304Z" fill="#EDEDEF"/>
<path d="M25.1591 122.833L104.114 99.5078L88.8409 84.2304L25.1591 122.833Z" fill="#DEDEE0"/>
<path d="M63.8182 59.1318L48.4773 43.8544L25.1591 122.833L63.8182 59.1318Z" fill="#F9F9F9"/>
<path d="M63.8182 59.1318L25.1591 122.833L88.8409 84.2304L63.8182 59.1318Z" fill="#EDEDEF"/>
<path opacity="0.1" d="M88.8409 84.2304L63.8182 59.1318L48.4773 43.8544L25.1591 122.833L104.114 99.5078L88.8409 84.2304Z" fill="#414042"/>
<defs>
<filter id="filter0_d_67_771" x="15" y="15" width="121" height="121" filterUnits="userSpaceOnUse" color-interpolation-filters="sRGB">
<feFlood flood-opacity="0" result="BackgroundImageFix"/>
<feColorMatrix in="SourceAlpha" type="matrix" values="0 0 0 0 0 0 0 0 0 0 0 0 0 0 0 0 0 0 127 0" result="hardAlpha"/>
<feOffset dy="2"/>
<feGaussianBlur stdDeviation="1.5"/>
<feColorMatrix type="matrix" values="0 0 0 0 0 0 0 0 0 0 0 0 0 0 0 0 0 0 0.25 0"/>
<feBlend mode="normal" in2="BackgroundImageFix" result="effect1_dropShadow_67_771"/>
<feBlend mode="normal" in="SourceGraphic" in2="effect1_dropShadow_67_771" result="shape"/>
</filter>
</defs>
</svg>
