<svg width="66" height="66" viewBox="0 0 66 66" fill="none" xmlns="http://www.w3.org/2000/svg">
<rect x="49.0725" y="16" width="3" height="46.0254" transform="rotate(46.0104 49.0725 16)" fill="#77C164"/>
<rect width="20" height="20" rx="2" fill="#D9D9D9"/>
<path d="M15 10C15 13.3137 12.7614 16 10 16C7.23858 16 5 13.3137 5 10C5 6.68629 7.23858 4 10 4C12.7614 4 15 6.68629 15 10ZM7.0248 10C7.0248 11.9718 8.35684 13.5702 10 13.5702C11.6432 13.5702 12.9752 11.9718 12.9752 10C12.9752 8.02821 11.6432 6.42976 10 6.42976C8.35684 6.42976 7.0248 8.02821 7.0248 10Z" fill="#FF827E"/>
<rect x="23" width="20" height="20" rx="2" fill="#D9D9D9"/>
<rect x="46" width="20" height="20" rx="2" fill="#77C164"/>
<rect y="23" width="20" height="20" rx="2" fill="#D9D9D9"/>
<rect x="23" y="23" width="20" height="20" rx="2" fill="#77C164"/>
<rect x="46" y="23" width="20" height="20" rx="2" fill="#D9D9D9"/>
<rect y="46" width="20" height="20" rx="2" fill="#77C164"/>
<rect x="23" y="46" width="20" height="20" rx="2" fill="#D9D9D9"/>
<rect x="46" y="46" width="20" height="20" rx="2" fill="#D9D9D9"/>
<path d="M15 33C15 36.3137 12.7614 39 10 39C7.23858 39 5 36.3137 5 33C5 29.6863 7.23858 27 10 27C12.7614 27 15 29.6863 15 33ZM7.0248 33C7.0248 34.9718 8.35684 36.5702 10 36.5702C11.6432 36.5702 12.9752 34.9718 12.9752 33C12.9752 31.0282 11.6432 29.4298 10 29.4298C8.35684 29.4298 7.0248 31.0282 7.0248 33Z" fill="#FF827E"/>
<path d="M38 10C38 13.3137 35.7614 16 33 16C30.2386 16 28 13.3137 28 10C28 6.68629 30.2386 4 33 4C35.7614 4 38 6.68629 38 10ZM30.0248 10C30.0248 11.9718 31.3568 13.5702 33 13.5702C34.6432 13.5702 35.9752 11.9718 35.9752 10C35.9752 8.02821 34.6432 6.42976 33 6.42976C31.3568 6.42976 30.0248 8.02821 30.0248 10Z" fill="#FF827E"/>
<rect width="2.46562" height="11.4634" rx="1.23281" transform="matrix(0.704804 0.709402 -0.694223 0.71976 59.2622 5)" fill="white"/>
<rect width="2.46734" height="11.4554" rx="1.23367" transform="matrix(-0.681252 0.732049 -0.717383 -0.696679 60.8988 13.0872)" fill="white"/>
<rect width="2.46562" height="11.4634" rx="1.23281" transform="matrix(0.704804 0.709402 -0.694223 0.71976 36.2622 28)" fill="white"/>
<rect width="2.46734" height="11.4554" rx="1.23367" transform="matrix(-0.681252 0.732049 -0.717383 -0.696679 37.8988 36.0872)" fill="white"/>
<rect width="2.46562" height="11.4634" rx="1.23281" transform="matrix(0.704804 0.709402 -0.694223 0.71976 13.2622 51)" fill="white"/>
<rect width="2.46734" height="11.4554" rx="1.23367" transform="matrix(-0.681252 0.732049 -0.717383 -0.696679 14.8988 59.0872)" fill="white"/>
</svg>
